HIERARCHY
ROOT root
{
	OFFSET 0.000000 0.000000 0.000000
	CHANNELS 6 Xposition Yposition Zposition Zrotation Yrotation Xrotation
	JOINT lhip
	{
		OFFSET 0.058581 -0.082280 -0.017664
		CHANNELS 3 Zrotation Yrotation Xrotation
		JOINT lknee
		{
			OFFSET 0.043451 -0.386469 0.008037
			CHANNELS 3 Zrotation Yrotation Xrotation
			JOINT lankle
			{
				OFFSET -0.014790 -0.426874 -0.037428
				CHANNELS 3 Zrotation Yrotation Xrotation
				JOINT ltoe
				{
					OFFSET 0.041054 -0.060286 0.122042
					CHANNELS 3 Zrotation Yrotation Xrotation
					End Site
					{
						OFFSET 0.000000 0.000000 0.000000
					}
				}
			}
		}
	}
	JOINT rhip
	{
		OFFSET -0.060310 -0.090513 -0.013543
		CHANNELS 3 Zrotation Yrotation Xrotation
		JOINT rknee
		{
			OFFSET -0.043257 -0.383688 -0.004843
			CHANNELS 3 Zrotation Yrotation Xrotation
			JOINT rankle
			{
				OFFSET 0.019056 -0.420046 -0.034562
				CHANNELS 3 Zrotation Yrotation Xrotation
				JOINT rtoe
				{
					OFFSET -0.034840 -0.062106 0.130323
					CHANNELS 3 Zrotation Yrotation Xrotation
					End Site
					{
						OFFSET 0.000000 0.000000 0.000000
					}
				}
			}
		}
	}
	JOINT lowerback
	{
		OFFSET 0.004439 0.124404 -0.038385
		CHANNELS 3 Zrotation Yrotation Xrotation
		JOINT upperback
		{
			OFFSET 0.004488 0.137956 0.026820
			CHANNELS 3 Zrotation Yrotation Xrotation
			JOINT chest
			{
				OFFSET -0.002265 0.056032 0.002855
				CHANNELS 3 Zrotation Yrotation Xrotation
				JOINT lowerneck
				{
					OFFSET -0.013390 0.211636 -0.033468
					CHANNELS 3 Zrotation Yrotation Xrotation
					JOINT upperneck
					{
						OFFSET 0.010113 0.088937 0.050410
						CHANNELS 3 Zrotation Yrotation Xrotation
						End Site
						{
							OFFSET 0.000000 0.000000 0.000000
						}
					}
				}
				JOINT lclavicle
				{
					OFFSET 0.071702 0.114000 -0.018898
					CHANNELS 3 Zrotation Yrotation Xrotation
					JOINT lshoulder
					{
						OFFSET 0.122921 0.045205 -0.019046
						CHANNELS 3 Zrotation Yrotation Xrotation
						JOINT lelbow
						{
							OFFSET 0.255332 -0.015649 -0.022946
							CHANNELS 3 Zrotation Yrotation Xrotation
							JOINT lwrist
							{
								OFFSET 0.265709 0.012698 -0.007375
								CHANNELS 3 Zrotation Yrotation Xrotation
								End Site
								{
									OFFSET 0.000000 0.000000 0.000000
								}
							}
						}
					}
				}
				JOINT rclavicle
				{
					OFFSET -0.082954 0.112472 -0.023707
					CHANNELS 3 Zrotation Yrotation Xrotation
					JOINT rshoulder
					{
						OFFSET -0.113228 0.046853 -0.008472
						CHANNELS 3 Zrotation Yrotation Xrotation
						JOINT relbow
						{
							OFFSET -0.260127 -0.014369 -0.031269
							CHANNELS 3 Zrotation Yrotation Xrotation
							JOINT rwrist
							{
								OFFSET -0.269108 0.006794 -0.006027
								CHANNELS 3 Zrotation Yrotation Xrotation
								End Site
								{
									OFFSET 0.000000 0.000000 0.000000
								}
							}
						}
					}
				}
			}
		}
	}
}
MOTION
Frames: 8
Frame Time: 0.033333
-0.626018 0.297015 0.813518 94.223964 -7.280139 94.285667 -4.186008 -10.502515 -32.297440 -10.757209 2.608056 72.077551 6.271310 19.851851 -39.472018 0.000000 -0.000000 0.000000 -10.533347 2.375600 -38.425688 6.038666 2.294832 84.993927 5.852134 -12.850644 -37.077155 0.000000 -0.000000 0.000000 -0.256469 0.463519 41.933478 0.222511 -1.462380 -8.432269 -0.979152 -1.059534 3.035168 2.246223 -1.255622 -31.370491 1.982065 -7.127252 1.623292 -38.582193 -14.712971 -0.339077 -37.579231 -9.587114 11.581048 6.541584 -31.670246 -6.609396 15.320271 -4.022239 -3.778443 37.666708 16.750043 2.866325 37.315014 6.531881 13.331100 -16.556327 25.910276 -20.250700 -11.227587 5.024674 3.086556 
-0.603575 0.295069 0.805448 94.738451 -6.653653 93.018656 -4.309053 -10.590591 -29.683653 -10.271926 1.911797 74.043228 5.703897 19.693340 -41.330222 0.000000 -0.000000 0.000000 -9.442596 3.021963 -36.011356 5.556782 2.111187 87.089965 6.279609 -11.903408 -37.571038 0.000000 -0.000000 0.000000 -0.263689 0.546199 40.013693 0.435298 -1.103717 -8.120169 -0.957627 -0.596267 2.684052 2.582523 -0.979215 -32.587503 1.015689 -7.471225 3.219870 -37.644573 -17.303911 -1.233801 -37.109302 -15.667176 11.479659 11.191226 -41.291057 -10.621862 15.751853 -4.563245 -7.033329 36.495155 18.709313 2.051010 36.707531 10.300825 12.687523 -23.222133 31.838987 -24.454549 -10.774917 6.565495 2.530656 
-0.578678 0.291787 0.808953 95.118223 -6.036481 92.530184 -4.589091 -9.463971 -26.656824 -9.902249 0.287526 73.788741 5.302058 19.718791 -41.932379 0.000000 -0.000000 0.000000 -7.338062 3.048533 -32.822007 6.085253 3.563135 86.704478 6.518130 -12.231048 -37.709932 0.000000 -0.000000 0.000000 -0.552177 0.998837 37.039372 0.743238 -1.408078 -7.916820 -0.604768 -0.460787 2.273522 2.498539 -0.851834 -33.840582 0.818813 -7.595135 4.647560 -34.143839 -21.550371 -2.121136 -33.118887 -21.598976 9.794625 19.121268 -52.238707 -15.862447 19.627555 -5.575274 -8.963155 33.911527 22.280269 0.997430 33.993926 14.003109 11.145352 -30.548415 38.100825 -27.866319 -11.143665 9.015315 3.230361 
-0.545441 0.288286 0.827513 94.266819 -5.063012 92.221122 -4.196549 -6.006458 -21.290721 -10.221913 -1.820018 69.624000 3.471099 19.179372 -41.744849 0.000000 -0.000000 0.000000 -4.814485 3.284620 -27.812058 6.507367 5.414601 82.603948 6.332761 -13.043024 -36.783469 0.000000 -0.000000 0.000000 -1.317601 1.288058 33.303901 1.208551 -2.277330 -6.722128 0.259807 -0.221794 1.218327 1.748619 0.704386 -34.249910 1.384771 -6.876398 4.891669 -27.037698 -26.181027 -4.854822 -25.731887 -24.425329 4.897647 34.716550 -60.085306 -30.934118 22.565829 -5.922022 -9.660754 28.458236 28.027791 -2.038556 30.393617 16.842038 9.365815 -39.152530 43.189266 -33.982809 -9.434715 10.110985 6.938052 
-0.500232 0.286271 0.861379 92.818532 -3.805363 92.310150 -2.491604 -0.869001 -14.239930 -11.263962 -4.994297 61.637060 2.234769 17.556798 -38.706047 0.000000 -0.000000 0.000000 -2.664323 1.838910 -21.359783 7.748157 8.438360 74.826776 5.754151 -13.302076 -33.712571 0.000000 -0.000000 0.000000 -1.476051 1.133144 27.945272 1.290276 -2.996527 -4.875604 1.009475 0.629846 0.225560 0.956117 1.199398 -34.551147 2.586624 -6.334678 5.544970 -18.149293 -29.629152 -8.033910 -17.164234 -23.714505 -2.550293 52.647388 -62.364712 -48.222688 25.655444 -6.576529 -9.947018 19.652467 33.318956 -5.898956 27.204424 17.871656 5.741008 -49.088200 47.346433 -41.713455 -9.525623 11.418179 8.881042 
-0.443743 0.291592 0.911672 91.165695 -3.666606 93.286343 -1.468796 1.783163 -6.738538 -10.257563 -6.465818 50.607570 -0.348279 13.651402 -30.699741 0.000000 -0.000000 0.000000 -3.503552 0.727678 -15.355202 5.578316 9.804100 64.448493 7.554191 -8.299772 -26.008992 0.000000 -0.000000 0.000000 -1.611221 1.536156 20.733485 0.863996 -2.962558 -3.505223 1.257468 1.419946 -2.171188 0.895210 1.317305 -30.419244 2.718642 -6.438979 5.722349 -13.419616 -30.491731 -10.861050 -12.617264 -22.185206 -4.528064 61.452422 -59.827081 -58.055001 25.583202 -10.475961 -6.133141 14.903081 31.926624 -6.369822 22.826230 20.535845 1.576816 -54.522504 50.843687 -46.447697 -11.590698 12.766767 11.118677 
-0.370754 0.295332 0.974844 90.804081 -3.685610 94.175717 -0.905958 2.463781 0.916293 -7.795846 -8.844271 37.619449 -4.886008 9.046774 -11.502132 0.000000 -0.000000 0.000000 -4.504221 -0.663146 -7.623520 1.703990 11.012661 50.103538 10.497747 -2.691386 -8.292616 0.000000 -0.000000 0.000000 -1.183723 1.681572 12.445483 0.798165 -3.132984 -3.353611 0.871613 1.168677 -3.793024 1.331314 0.026618 -23.530896 2.694960 -4.493057 6.867290 -12.233529 -26.978954 -11.587660 -14.539544 -22.531179 -3.479695 65.223259 -58.941162 -58.394957 24.101633 -11.712485 -4.571383 11.530109 28.159463 -8.317351 23.562825 21.787830 1.458652 -54.494826 54.798268 -42.827111 -10.690942 12.270539 7.579375 
-0.293597 0.292485 1.042444 91.752211 -3.367472 95.359333 -0.305763 0.999466 5.587858 -3.620643 -10.381276 24.349781 -9.754905 6.964567 16.016651 0.000000 -0.000000 0.000000 -3.946424 -0.653865 -1.540705 -2.650471 11.387336 35.128370 14.826804 -0.182213 18.689725 0.000000 -0.000000 0.000000 -0.383351 1.335391 3.442755 0.827777 -2.834290 -2.162156 -0.234165 1.156737 -6.527514 1.342816 -3.709550 -14.300055 4.345881 -2.083281 7.028939 -15.908238 -23.265919 -8.506711 -16.601994 -24.500018 -1.769411 64.728787 -59.221893 -55.762091 19.995119 -12.856588 -0.868625 12.828246 23.519610 -5.701275 23.026271 22.043391 1.404898 -51.542180 56.922985 -36.941564 -9.776577 12.823683 7.531721 
